<?xml version="1.0" standalone="no"?>
<!DOCTYPE svg PUBLIC "-//W3C//DTD SVG 20010904//EN"
 "http://www.w3.org/TR/2001/REC-SVG-20010904/DTD/svg10.dtd">
<svg version="1.0" xmlns="http://www.w3.org/2000/svg"
 width="240.000000pt" height="191.000000pt" viewBox="0 0 240.000000 191.000000"
 preserveAspectRatio="xMidYMid meet">

<g transform="translate(0.000000,191.000000) scale(0.100000,-0.100000)"
fill="#000000" stroke="none">
<path d="M1724 971 c-60 -37 -52 -106 16 -141 32 -16 41 -26 38 -43 -2 -16
-11 -23 -32 -25 -16 -2 -33 1 -39 7 -18 18 -27 12 -27 -19 0 -57 91 -71 141
-21 51 52 38 97 -46 155 -24 17 -25 20 -11 34 12 13 20 13 41 4 24 -11 25 -10
25 22 0 26 -5 35 -22 40 -36 9 -51 7 -84 -13z"/>
<path d="M60 839 l0 -140 33 3 c32 3 32 4 35 61 3 53 5 57 27 57 24 0 25 -3
25 -60 l0 -60 30 0 30 0 0 140 0 140 -30 0 c-29 0 -30 -1 -30 -50 0 -47 -2
-50 -25 -50 -23 0 -25 3 -25 50 l0 50 -35 0 -35 0 0 -141z"/>
<path d="M280 865 c0 -110 1 -117 25 -140 34 -35 96 -35 130 0 24 23 25 30 25
140 l0 115 -29 0 -29 0 -4 -105 c-3 -101 -13 -135 -37 -121 -7 5 -11 49 -11
117 l0 109 -35 0 -35 0 0 -115z"/>
<path d="M500 841 l0 -141 30 0 29 0 3 83 3 82 20 -52 c11 -29 22 -53 25 -53
4 0 16 28 27 63 l21 62 1 -92 1 -93 30 0 30 0 0 140 0 140 -39 0 c-37 0 -39
-2 -51 -45 -7 -25 -16 -45 -19 -45 -4 0 -13 19 -21 43 -14 38 -18 42 -52 45
l-38 3 0 -140z"/>
<path d="M782 857 c-40 -154 -40 -157 -3 -157 25 0 31 5 36 31 6 25 11 30 33
27 18 -2 28 -10 32 -28 4 -19 13 -26 38 -28 40 -4 40 -3 -2 153 l-32 120 -34
3 -35 3 -33 -124z m78 -18 c0 -20 -5 -29 -16 -29 -12 0 -15 6 -10 23 3 12 6
28 6 35 0 7 5 10 10 7 6 -3 10 -19 10 -36z"/>
<path d="M972 843 l3 -138 33 -3 32 -3 1 73 1 73 25 -72 c24 -71 25 -73 59
-73 l34 0 0 140 0 140 -30 0 -29 0 -3 -72 -3 -73 -24 73 -25 72 -38 0 -39 0 3
-137z"/>
<path d="M1200 839 l0 -140 33 3 32 3 3 138 3 137 -36 0 -35 0 0 -141z"/>
<path d="M1300 950 c0 -25 4 -30 25 -30 24 0 24 -1 27 -107 l3 -108 30 0 30 0
3 108 c3 106 3 107 27 107 21 0 25 5 25 30 l0 30 -85 0 -85 0 0 -30z"/>
<path d="M1516 928 c-19 -66 -56 -214 -56 -223 0 -3 14 -5 32 -3 25 2 34 9 38
28 4 18 14 26 32 28 22 3 27 -2 33 -27 6 -27 11 -31 41 -31 19 0 34 3 34 7 0
4 -16 67 -37 140 l-36 133 -33 0 c-31 0 -33 -3 -48 -52z m63 -105 c1 -7 -6
-13 -14 -13 -16 0 -20 26 -8 57 6 16 8 15 14 -7 4 -14 7 -31 8 -37z"/>
</g>
</svg>
